<svg xmlns="http://www.w3.org/2000/svg" style="display:none">
  <symbol viewBox="0 0 24 24" id="lucide-code-xml">
    <path fill="none" stroke="currentColor" stroke-linecap="round" stroke-linejoin="round" stroke-width="2" d="m18 16l4-4l-4-4M6 8l-4 4l4 4m8.5-12l-5 16"></path>
  </symbol>
  <symbol viewBox="0 0 24 24" id="lucide-moon">
    <path fill="none" stroke="currentColor" stroke-linecap="round" stroke-linejoin="round" stroke-width="2" d="M20.985 12.486a9 9 0 1 1-9.473-9.472c.405-.022.617.46.402.803a6 6 0 0 0 8.268 8.268c.344-.215.825-.004.803.401"></path>
  </symbol>
  <symbol viewBox="0 0 24 24" id="lucide-sun"><g fill="none" stroke="currentColor" stroke-linecap="round" stroke-linejoin="round" stroke-width="2"><circle cx="12" cy="12" r="4"></circle><path d="M12 2v2m0 16v2M4.93 4.93l1.41 1.41m11.32 11.32l1.41 1.41M2 12h2m16 0h2M6.34 17.66l-1.41 1.41M19.07 4.93l-1.41 1.41"></path></g></symbol>
  <symbol viewBox="0 0 24 24" id="lucide-download"><g fill="none" stroke="currentColor" stroke-linecap="round" stroke-linejoin="round" stroke-width="2"><path d="M12 15V3m9 12v4a2 2 0 0 1-2 2H5a2 2 0 0 1-2-2v-4"></path><path d="m7 10l5 5l5-5"></path></g></symbol>
  <symbol viewBox="0 0 24 24" id="lucide-menu">
    <path fill="none" stroke="currentColor" stroke-linecap="round" stroke-linejoin="round" stroke-width="2" d="M3 12h18M3 18h18M3 6h18"></path>
  </symbol>
  <symbol viewBox="0 0 24 24" id="lucide-x">
    <path fill="none" stroke="currentColor" stroke-linecap="round" stroke-linejoin="round" stroke-width="2" d="m15 9l-6 6m0-6l6 6" cx="12" cy="12" r="10"></path>
  </symbol>
  <symbol viewBox="0 0 24 24" id="lucide-laptop">
    <path fill="none" stroke="currentColor" stroke-linecap="round" stroke-linejoin="round" stroke-width="2" d="M18 5a2 2 0 0 1 2 2v8.526a2 2 0 0 0 .212.897l1.068 2.127a1 1 0 0 1-.9 1.45H3.62a1 1 0 0 1-.9-1.45l1.068-2.127A2 2 0 0 0 4 15.526V7a2 2 0 0 1 2-2zm2.054 10.987H3.946"></path>
  </symbol>
  <symbol viewBox="0 0 24 24" id="lucide-mail">
    <g fill="none" stroke="currentColor" stroke-linecap="round" stroke-linejoin="round" stroke-width="2"><path d="m22 7l-8.991 5.727a2 2 0 0 1-2.009 0L2 7"></path><rect width="20" height="16" x="2" y="4" rx="2"></rect></g></symbol>
  <symbol viewBox="0 0 24 24" id="lucide-user"><g fill="none" stroke="currentColor" stroke-linecap="round" stroke-linejoin="round" stroke-width="2"><path d="M19 21v-2a4 4 0 0 0-4-4H9a4 4 0 0 0-4 4v2"></path><circle cx="12" cy="7" r="4"></circle></g></symbol>
  <symbol viewBox="0 0 24 24" id="lucide-notebook-pen">
    <path fill="none" stroke="currentColor" stroke-linecap="round" stroke-linejoin="round" stroke-width="2" d="M13.4 2H6a2 2 0 0 0-2 2v16a2 2 0 0 0 2 2h12a2 2 0 0 0 2-2v-7.4M2 6h4m-4 4h4m-4 4h4m-4 4h4m8.4-14.5l5.6 5.6a1 1 0 0 1 0 1.4l-6 6a1 1 0 0 1-.7.3L10 19l.3-3.3a1 1 0 0 1 .3-.7l6-6a1 1 0 0 1 1.4 0"></path>
  </symbol>
</svg>
