<svg xmlns="http://www.w3.org/2000/svg" style="display:none">
  <symbol viewBox="0 0 24 24" id="lucide-code-xml">
    <path fill="none" stroke="currentColor" stroke-linecap="round" stroke-linejoin="round" stroke-width="2" d="m18 16l4-4l-4-4M6 8l-4 4l4 4m8.5-12l-5 16"></path>
  </symbol>
  <symbol viewBox="0 0 24 24" id="lucide-moon">
    <path fill="none" stroke="currentColor" stroke-linecap="round" stroke-linejoin="round" stroke-width="2" d="M20.985 12.486a9 9 0 1 1-9.473-9.472c.405-.022.617.46.402.803a6 6 0 0 0 8.268 8.268c.344-.215.825-.004.803.401"></path>
  </symbol>
  <symbol viewBox="0 0 24 24" id="lucide-sun"><g fill="none" stroke="currentColor" stroke-linecap="round" stroke-linejoin="round" stroke-width="2"><circle cx="12" cy="12" r="4"></circle><path d="M12 2v2m0 16v2M4.93 4.93l1.41 1.41m11.32 11.32l1.41 1.41M2 12h2m16 0h2M6.34 17.66l-1.41 1.41M19.07 4.93l-1.41 1.41"></path></g></symbol>
  <symbol viewBox="0 0 24 24" id="lucide-download"><g fill="none" stroke="currentColor" stroke-linecap="round" stroke-linejoin="round" stroke-width="2"><path d="M12 15V3m9 12v4a2 2 0 0 1-2 2H5a2 2 0 0 1-2-2v-4"></path><path d="m7 10l5 5l5-5"></path></g></symbol>
  <symbol viewBox="0 0 24 24" id="lucide-menu">
    <path fill="none" stroke="currentColor" stroke-linecap="round" stroke-linejoin="round" stroke-width="2" d="M3 12h18M3 18h18M3 6h18"></path>
  </symbol>
  <symbol viewBox="0 0 24 24" id="lucide-x"><path fill="currentColor" d="m6.4 18.308l-.708-.708l5.6-5.6l-5.6-5.6l.708-.708l5.6 5.6l5.6-5.6l.708.708l-5.6 5.6l5.6 5.6l-.708.708l-5.6-5.6z"></path></symbol>
  <symbol viewBox="0 0 24 24" id="think"><path fill="currentColor" d="M8 2C4.1 2 1 5.1 1 9c0 2.4 1.2 4.5 3 5.7V17c0 .6.4 1 1 1h6c.6 0 1-.4 1-1v-2.3c1.8-1.3 3-3.4 3-5.7c0-3.9-3.1-7-7-7M5 21c0 .6.4 1 1 1h4c.6 0 1-.4 1-1v-1H5zm15.5-6.5V16H19v-1.5zm-2-5H17V9c0-1.7 1.3-3 3-3s3 1.3 3 3c0 1-.5 1.9-1.3 2.4l-.3.2c-.6.4-.9 1-.9 1.7v.2H19v-.2c0-1.2.6-2.3 1.6-2.9l.3-.2q.6-.45.6-1.2c0-.8-.7-1.5-1.5-1.5s-1.5.7-1.5 1.5z"></path></symbol>
  <symbol viewBox="0 0 24 24" id="lucide-laptop">
    <path fill="none" stroke="currentColor" stroke-linecap="round" stroke-linejoin="round" stroke-width="2" d="M18 5a2 2 0 0 1 2 2v8.526a2 2 0 0 0 .212.897l1.068 2.127a1 1 0 0 1-.9 1.45H3.62a1 1 0 0 1-.9-1.45l1.068-2.127A2 2 0 0 0 4 15.526V7a2 2 0 0 1 2-2zm2.054 10.987H3.946"></path>
  </symbol>
  <symbol viewBox="0 0 24 24" id="lucide-phone"><path fill="none" stroke="currentColor" stroke-linecap="round" stroke-linejoin="round" stroke-width="2" d="M13.832 16.568a1 1 0 0 0 1.213-.303l.355-.465A2 2 0 0 1 17 15h3a2 2 0 0 1 2 2v3a2 2 0 0 1-2 2A18 18 0 0 1 2 4a2 2 0 0 1 2-2h3a2 2 0 0 1 2 2v3a2 2 0 0 1-.8 1.6l-.468.351a1 1 0 0 0-.292 1.233a14 14 0 0 0 6.392 6.384"></path></symbol>
  <symbol viewBox="0 0 24 24" id="lucide-mail">
    <g fill="none" stroke="currentColor" stroke-linecap="round" stroke-linejoin="round" stroke-width="2"><path d="m22 7l-8.991 5.727a2 2 0 0 1-2.009 0L2 7"></path><rect width="20" height="16" x="2" y="4" rx="2"></rect></g></symbol>
  <symbol viewBox="0 0 24 24" id="lucide-user"><g fill="none" stroke="currentColor" stroke-linecap="round" stroke-linejoin="round" stroke-width="2"><path d="M19 21v-2a4 4 0 0 0-4-4H9a4 4 0 0 0-4 4v2"></path><circle cx="12" cy="7" r="4"></circle></g></symbol>
  <symbol viewBox="0 0 24 24" id="lucide-notebook-pen">
    <path fill="none" stroke="currentColor" stroke-linecap="round" stroke-linejoin="round" stroke-width="2" d="M13.4 2H6a2 2 0 0 0-2 2v16a2 2 0 0 0 2 2h12a2 2 0 0 0 2-2v-7.4M2 6h4m-4 4h4m-4 4h4m-4 4h4m8.4-14.5l5.6 5.6a1 1 0 0 1 0 1.4l-6 6a1 1 0 0 1-.7.3L10 19l.3-3.3a1 1 0 0 1 .3-.7l6-6a1 1 0 0 1 1.4 0"></path>
  </symbol>
  <symbol viewBox="0 0 24 24" id="lucide-arrow-right"><path fill="none" stroke="currentColor" stroke-linecap="round" stroke-linejoin="round" stroke-width="2" d="M5 12h14m-7-7l7 7l-7 7"></path></symbol>
  <symbol viewBox="0 0 24 24" id="lucide-arrow-left"><path fill="none" stroke="currentColor" stroke-linecap="round" stroke-linejoin="round" stroke-width="2" d="m12 19l-7-7l7-7m7 7H5"></path></symbol>
  <symbol viewBox="0 0 24 24" id="spinners"><g><circle cx="12" cy="3" r="1" fill="currentColor"><animate id="SVGelgoqhuA" attributeName="r" begin="0;SVGSRzJybSJ.end-0.5s" calcMode="spline" dur="0.6s" keySplines=".27,.42,.37,.99;.53,0,.61,.73" values="1;2;1"></animate></circle><circle cx="16.5" cy="4.21" r="1" fill="currentColor"><animate id="SVGBcQu6cCi" attributeName="r" begin="SVGelgoqhuA.begin+0.1s" calcMode="spline" dur="0.6s" keySplines=".27,.42,.37,.99;.53,0,.61,.73" values="1;2;1"></animate></circle><circle cx="7.5" cy="4.21" r="1" fill="currentColor"><animate id="SVGSRzJybSJ" attributeName="r" begin="SVGeZGzNdVZ.begin+0.1s" calcMode="spline" dur="0.6s" keySplines=".27,.42,.37,.99;.53,0,.61,.73" values="1;2;1"></animate></circle><circle cx="19.79" cy="7.5" r="1" fill="currentColor"><animate id="SVGG5Q0fe0M" attributeName="r" begin="SVGBcQu6cCi.begin+0.1s" calcMode="spline" dur="0.6s" keySplines=".27,.42,.37,.99;.53,0,.61,.73" values="1;2;1"></animate></circle><circle cx="4.21" cy="7.5" r="1" fill="currentColor"><animate id="SVGeZGzNdVZ" attributeName="r" begin="SVGUTnihcal.begin+0.1s" calcMode="spline" dur="0.6s" keySplines=".27,.42,.37,.99;.53,0,.61,.73" values="1;2;1"></animate></circle><circle cx="21" cy="12" r="1" fill="currentColor"><animate id="SVG8aQG8dpc" attributeName="r" begin="SVGG5Q0fe0M.begin+0.1s" calcMode="spline" dur="0.6s" keySplines=".27,.42,.37,.99;.53,0,.61,.73" values="1;2;1"></animate></circle><circle cx="3" cy="12" r="1" fill="currentColor"><animate id="SVGUTnihcal" attributeName="r" begin="SVGHktsvT5Q.begin+0.1s" calcMode="spline" dur="0.6s" keySplines=".27,.42,.37,.99;.53,0,.61,.73" values="1;2;1"></animate></circle><circle cx="19.79" cy="16.5" r="1" fill="currentColor"><animate id="SVGqCF3Scrd" attributeName="r" begin="SVG8aQG8dpc.begin+0.1s" calcMode="spline" dur="0.6s" keySplines=".27,.42,.37,.99;.53,0,.61,.73" values="1;2;1"></animate></circle><circle cx="4.21" cy="16.5" r="1" fill="currentColor"><animate id="SVGHktsvT5Q" attributeName="r" begin="SVGSFNCBbxb.begin+0.1s" calcMode="spline" dur="0.6s" keySplines=".27,.42,.37,.99;.53,0,.61,.73" values="1;2;1"></animate></circle><circle cx="16.5" cy="19.79" r="1" fill="currentColor"><animate id="SVGMFYo1cJN" attributeName="r" begin="SVGqCF3Scrd.begin+0.1s" calcMode="spline" dur="0.6s" keySplines=".27,.42,.37,.99;.53,0,.61,.73" values="1;2;1"></animate></circle><circle cx="7.5" cy="19.79" r="1" fill="currentColor"><animate id="SVGSFNCBbxb" attributeName="r" begin="SVGLSoLpdOI.begin+0.1s" calcMode="spline" dur="0.6s" keySplines=".27,.42,.37,.99;.53,0,.61,.73" values="1;2;1"></animate></circle><circle cx="12" cy="21" r="1" fill="currentColor"><animate id="SVGLSoLpdOI" attributeName="r" begin="SVGMFYo1cJN.begin+0.1s" calcMode="spline" dur="0.6s" keySplines=".27,.42,.37,.99;.53,0,.61,.73" values="1;2;1"></animate></circle><animateTransform attributeName="transform" dur="6s" repeatCount="indefinite" type="rotate" values="360 12 12;0 12 12"></animateTransform></g></symbol>
  <symbol viewBox="0 0 24 24" id="lucide-zap"><path fill="none" stroke="currentColor" stroke-linecap="round" stroke-linejoin="round" stroke-width="2" d="M4 14a1 1 0 0 1-.78-1.63l9.9-10.2a.5.5 0 0 1 .86.46l-1.92 6.02A1 1 0 0 0 13 10h7a1 1 0 0 1 .78 1.63l-9.9 10.2a.5.5 0 0 1-.86-.46l1.92-6.02A1 1 0 0 0 11 14z"></path></symbol>
  <symbol viewBox="0 0 24 24" id="lucide-linkedin"><path fill="none" stroke="currentColor" stroke-linecap="round" stroke-linejoin="round" stroke-width="2" d="M16 8a6 6 0 0 1 6 6v7h-4v-7a2 2 0 0 0-2-2a2 2 0 0 0-2 2v7h-4v-7a6 6 0 0 1 6-6M2 9h4v12H2z"></path><circle cx="4" cy="4" r="2" fill="none" stroke="currentColor" stroke-linecap="round" stroke-linejoin="round" stroke-width="2"></circle></symbol>
  <symbol viewBox="0 0 24 24" id="lucide-github"><path fill="none" stroke="currentColor" stroke-linecap="round" stroke-linejoin="round" stroke-width="2" d="M15 22v-4a4.8 4.8 0 0 0-1-3.5c3 0 6-2 6-5.5c.08-1.25-.27-2.48-1-3.5c.28-1.15.28-2.35 0-3.5c0 0-1 0-3 1.5c-2.64-.5-5.36-.5-8 0C6 2 5 2 5 2c-.3 1.15-.3 2.35 0 3.5A5.4 5.4 0 0 0 4 9c0 3.5 3 5.5 6 5.5c-.39.49-.68 1.05-.85 1.65S8.93 17.38 9 18v4m0-3c-5 1.5-5-2.5-7-3"></path></symbol>
  <symbol viewBox="0 0 24 24" id="lucide-message-circle"><path fill="none" stroke="currentColor" stroke-linecap="round" stroke-linejoin="round" stroke-width="2" d="M7.9 20A9 9 0 1 0 4 16.1L2 22z"></path></symbol>
  <symbol viewBox="0 0 16 16" id="bi-twitter-x"><path fill="currentColor" d="M12.6.75h2.454l-5.36 6.142L16 15.25h-4.937l-3.867-5.07l-4.425 5.07H.316l5.733-6.57L0 .75h5.063l3.495 4.633L12.601.75Zm-.86 13.028h1.36L4.323 2.145H2.865z"></path></symbol>
  <symbol viewBox="0 0 24 24" id="lucide-map-pin"><path fill="none" stroke="currentColor" stroke-linecap="round" stroke-linejoin="round" stroke-width="2" d="M20 10c0 4.993-5.539 10.193-7.399 11.799a1 1 0 0 1-1.202 0C9.539 20.193 4 14.993 4 10a8 8 0 0 1 16 0"></path><circle cx="12" cy="10" r="3" fill="none" stroke="currentColor" stroke-linecap="round" stroke-linejoin="round" stroke-width="2"></circle></symbol>
  <symbol viewBox="0 0 24 24" id="lucide-graduation-cap"><path fill="none" stroke="currentColor" stroke-linecap="round" stroke-linejoin="round" stroke-width="2" d="m21.42 10.922l-1.768-.883M7.5 15.5l-5-2.5M22 12l-10 5l-10-5l10-5zM6 14.648V18a2 2 0 0 0 1.185 1.827l4.11 1.863a2 2 0 0 0 1.41 0l4.11-1.863A2 2 0 0 0 18 18v-3.352"></path></symbol>
  <symbol viewBox="0 0 24 24" id="lucide-users"><path fill="none" stroke="currentColor" stroke-linecap="round" stroke-linejoin="round" stroke-width="2" d="M16 21v-2a4 4 0 0 0-4-4H6a4 4 0 0 0-4 4v2m14-8a4 4 0 0 0 0-8m6 21v-2a4 4 0 0 0-3-3.87"></path><circle cx="9" cy="7" r="4" fill="none" stroke="currentColor" stroke-linecap="round" stroke-linejoin="round" stroke-width="2"></circle></symbol>
  <symbol viewBox="0 0 24 24" id="lucide-lightbulb"><path fill="none" stroke="currentColor" stroke-linecap="round" stroke-linejoin="round" stroke-width="2" d="M15 14c.2-1 .7-1.7 1.5-2.5A6 6 0 1 0 6.5 11.5c.8.8 1.3 1.5 1.5 2.5m7 0H9m6 0v2a2 2 0 1 1-4 0v-2"></path></symbol>
  <symbol viewBox="0 0 24 24" id="lucide-brain"><path fill="none" stroke="currentColor" stroke-linecap="round" stroke-linejoin="round" stroke-width="2" d="M12 5a3 3 0 1 0-5.997.125a4 4 0 0 0-2.526 5.77a4 4 0 0 0 .556 6.588A4 4 0 1 0 12 18Z"></path><path fill="none" stroke="currentColor" stroke-linecap="round" stroke-linejoin="round" stroke-width="2" d="M12 5a3 3 0 1 1 5.997.125a4 4 0 0 1 2.526 5.77a4 4 0 0 1-.556 6.588A4 4 0 1 1 12 18Z"></path><path fill="none" stroke="currentColor" stroke-linecap="round" stroke-linejoin="round" stroke-width="2" d="M15 13a4.5 4.5 0 0 1-3-4a4.5 4.5 0 0 1-3 4m0 3v-1m6 0v-1"></path></symbol>
  <symbol viewBox="0 0 24 24" id="lucide-graduation-cap"><g fill="none" stroke="currentColor" stroke-linecap="round" stroke-linejoin="round" stroke-width="2"><path d="M21.42 10.922a1 1 0 0 0-.019-1.838L12.83 5.18a2 2 0 0 0-1.66 0L2.6 9.08a1 1 0 0 0 0 1.832l8.57 3.908a2 2 0 0 0 1.66 0zM22 10v6"></path><path d="M6 12.5V16a6 3 0 0 0 12 0v-3.5"></path></g></symbol>
  <symbol viewBox="0 0 24 24" id="lucide-compass"><g fill="none" stroke="currentColor" stroke-linecap="round" stroke-linejoin="round" stroke-width="2"><path d="m12.99 6.74l1.93 3.44M19.136 12a10 10 0 0 1-14.271 0M21 21l-2.16-3.84M3 21l8.02-14.26"></path><circle cx="12" cy="5" r="2"></circle></g></symbol>
  <symbol viewBox="0 0 24 24" id="lucide-sparkles"><g fill="none" stroke="currentColor" stroke-linecap="round" stroke-linejoin="round" stroke-width="2"><path d="M11.017 2.814a1 1 0 0 1 1.966 0l1.051 5.558a2 2 0 0 0 1.594 1.594l5.558 1.051a1 1 0 0 1 0 1.966l-5.558 1.051a2 2 0 0 0-1.594 1.594l-1.051 5.558a1 1 0 0 1-1.966 0l-1.051-5.558a2 2 0 0 0-1.594-1.594l-5.558-1.051a1 1 0 0 1 0-1.966l5.558-1.051a2 2 0 0 0 1.594-1.594zM20 2v4m2-2h-4"></path><circle cx="4" cy="20" r="2"></circle></g></symbol>
  <symbol viewBox="0 0 14 14" id="valid"><g fill="none" stroke="currentColor" stroke-linecap="round" stroke-linejoin="round"><rect width="13" height="13" x=".5" y=".5" rx="3"></rect><path d="m4 8l2.05 1.64a.48.48 0 0 0 .4.1a.5.5 0 0 0 .34-.24L10 4"></path></g></symbol>
  <symbol viewBox="0 0 24 24" id="book"><path fill="currentColor" d="M6.75 22q-1.125 0-1.937-.763T4 19.35V5.4q0-.95.588-1.7t1.537-.95l7.5-1.475q.925-.2 1.65.4T16 3.225V15.15q0 .725-.45 1.288t-1.15.687L6.525 18.7q-.225.05-.375.238T6 19.35q0 .275.225.463T6.75 20H18V5q0-.425.288-.712T19 4t.713.288T20 5v15q0 .825-.587 1.413T18 22zm1.45-5.65q.35-.075.575-.35T9 15.375V5.45q0-.475-.363-.775t-.837-.2q-.35.075-.575.35T7 5.45v9.925q0 .475.362.775t.838.2"></path></symbol>
  <symbol viewBox="0 0 24 24" id="spider-web"><path fill="currentColor" d="m13.62 13.28l1.64 2.26c.03-.54.12-1.07.3-1.61c.18-.56.44-1.07.74-1.52zM17.77 19c-.02-1.32.18-2.73.64-4.15c.47-1.43 1.15-2.71 1.95-3.76l-2.04.66c-.78.51-1.45 1.39-1.82 2.48c-.33 1.06-.32 2.13 0 2.99zm1.48 2q-.75.69-1.62 1.2l-.32-.44C15.9 21 14.04 20.5 12 20.5s-3.9.5-5.31 1.26l-.32.44q-.87-.51-1.62-1.2l.25-.31c.33-1.61.22-3.57-.42-5.55c-.64-1.95-1.68-3.58-2.87-4.68l-.44-.14c.15-.66.36-1.32.62-1.91l.4.13c1.63-.17 3.45-.89 5.14-2.11c1.66-1.21 2.89-2.7 3.57-4.17v-.47l1-.04l1 .04v.42c.67 1.5 1.91 3.02 3.6 4.24c1.66 1.21 3.46 1.92 5.07 2.11l.44-.15c.26.59.47 1.25.62 1.91l-.5.18c-1.19 1.08-2.23 2.71-2.86 4.66c-.63 1.93-.75 3.84-.45 5.41zM11 11.37V8.5c-.34.42-.74.82-1.22 1.17c-.49.33-1.01.62-1.53.83zm0-7.15c-.75 1.09-1.76 2.13-3 3.02c-1.22.9-2.54 1.54-3.82 1.92l1.97.64c.96.08 2.07-.24 3.04-.94c.94-.68 1.57-1.59 1.81-2.5zm2 7.15l2.74-.87c-.51-.2-1.02-.47-1.49-.81c-.49-.36-.91-.77-1.25-1.19zm6.8-2.21c-1.27-.38-2.57-1.01-3.8-1.9c-1.23-.9-2.24-1.95-3-3.06v2.07c.22.94.86 1.9 1.84 2.61c.93.68 1.99.99 2.93.94zm-9.42 4.12l-2.74-.89c.31.45.56.96.74 1.52c.19.59.28 1.15.3 1.71zm-6.8-2.21c.8 1.05 1.48 2.33 1.95 3.76c.47 1.46.67 2.91.64 4.25l1.21-1.67c.38-.91.42-2.05.05-3.19c-.36-1.1-1.03-1.98-1.82-2.49zM12 14.45l-1.65 2.27a6.3 6.3 0 0 1 3.3 0zm-4.16 5.73c1.24-.43 2.66-.68 4.16-.68s2.92.25 4.16.68l-1.28-1.76c-.72-.57-1.75-.92-2.88-.92s-2.16.35-2.88.92z"></path></symbol>
  <symbol viewBox="0 0 16 16" id="bi-discord"><path fill="currentColor" d="M13.545 2.907a13.2 13.2 0 0 0-3.257-1.011a.05.05 0 0 0-.052.025c-.141.25-.297.577-.406.833a12.2 12.2 0 0 0-3.658 0a8 8 0 0 0-.412-.833a.05.05 0 0 0-.052-.025c-1.125.194-2.22.534-3.257 1.011a.04.04 0 0 0-.021.018C.356 6.024-.213 9.047.066 12.032q.003.022.021.037a13.3 13.3 0 0 0 3.995 2.02a.05.05 0 0 0 .056-.019q.463-.63.818-1.329a.05.05 0 0 0-.01-.059l-.018-.011a9 9 0 0 1-1.248-.595a.05.05 0 0 1-.02-.066l.015-.019q.127-.095.248-.195a.05.05 0 0 1 .051-.007c2.619 1.196 5.454 1.196 8.041 0a.05.05 0 0 1 .053.007q.121.1.248.195a.05.05 0 0 1-.004.085a8 8 0 0 1-1.249.594a.05.05 0 0 0-.03.03a.05.05 0 0 0 .003.041c.24.465.515.909.817 1.329a.05.05 0 0 0 .056.019a13.2 13.2 0 0 0 4.001-2.02a.05.05 0 0 0 .021-.037c.334-3.451-.559-6.449-2.366-9.106a.03.03 0 0 0-.02-.019m-8.198 7.307c-.789 0-1.438-.724-1.438-1.612s.637-1.613 1.438-1.613c.807 0 1.45.73 1.438 1.613c0 .888-.637 1.612-1.438 1.612m5.316 0c-.788 0-1.438-.724-1.438-1.612s.637-1.613 1.438-1.613c.807 0 1.451.73 1.438 1.613c0 .888-.631 1.612-1.438 1.612"></path></symbol>
  <symbol viewBox="0 0 24 24" id="lucide-external-link"><path fill="none" stroke="currentColor" stroke-linecap="round" stroke-linejoin="round" stroke-width="2" d="M15 3h6v6m-11 5L21 3m-3 10v6a2 2 0 0 1-2 2H5a2 2 0 0 1-2-2V8a2 2 0 0 1 2-2h6"></path></symbol>
  <symbol viewBox="0 0 24 24" id="lucide-calendar"><g fill="none" stroke="currentColor" stroke-linecap="round" stroke-linejoin="round" stroke-width="2"><path d="M8 2v4m8-4v4"></path><rect width="18" height="18" x="3" y="4" rx="2"></rect><path d="M3 10h18"></path></g></symbol>
  <symbol viewBox="0 0 24 24" id="lucide-clock"><g fill="none" stroke="currentColor" stroke-linecap="round" stroke-linejoin="round" stroke-width="2"><circle cx="12" cy="12" r="10"></circle><path d="M12 6v6l4 2"></path></g></symbol>
  <symbol viewBox="0 0 24 24" id="lucide-chevron-left"><path fill="none" stroke="currentColor" stroke-linecap="round" stroke-linejoin="round" stroke-width="2" d="m15 18l-6-6l6-6"></path></symbol>
  <symbol viewBox="0 0 24 24" id="lucide-chevron-right"><path fill="none" stroke="currentColor" stroke-linecap="round" stroke-linejoin="round" stroke-width="2" d="m9 18l6-6l-6-6"></path></symbol>
  <symbol viewBox="0 0 24 24" id="lucide-check"><path fill="none" stroke="currentColor" stroke-linecap="round" stroke-linejoin="round" stroke-width="2" d="M20 6L9 17l-5-5"></path></symbol>
  <symbol viewBox="0 0 24 24" id="lucide-pen-line"><g fill="none" stroke="currentColor" stroke-linecap="round" stroke-linejoin="round" stroke-width="2"><path d="M12 20h9"></path><path d="M16.376 3.622a1 1 0 0 1 3.002 3.002L7.368 18.635a2 2 0 0 1-.855.506l-2.872.838a.5.5 0 0 1-.62-.62l.838-2.872a2 2 0 0 1 .506-.854z"></path></g></symbol>
  <symbol viewBox="0 0 24 24" id="lucide-send"><path fill="none" stroke="currentColor" stroke-linecap="round" stroke-linejoin="round" stroke-width="2" d="M14.536 21.686a.5.5 0 0 0 .937-.024l6.5-19a.496.496 0 0 0-.635-.635l-19 6.5a.5.5 0 0 0-.024.937l7.93 3.18a2 2 0 0 1 1.112 1.11z m7.436-19.658l-6.609 6.609"></path></symbol>
  <symbol viewBox="0 0 24 24" id="lucide-loader-2"><path fill="none" stroke="currentColor" stroke-linecap="round" stroke-linejoin="round" stroke-width="2" d="M21 12a9 9 0 1 1-6.219-8.56"></path></symbol>
  <symbol viewBox="0 0 24 24" id="lucide-layout-dashboard"><g fill="none" stroke="currentColor" stroke-linecap="round" stroke-linejoin="round" stroke-width="2"><rect width="7" height="9" x="3" y="3" rx="1"></rect><rect width="7" height="5" x="14" y="3" rx="1"></rect><rect width="7" height="9" x="14" y="12" rx="1"></rect><rect width="7" height="5" x="3" y="16" rx="1"></rect></g></symbol>
  <symbol viewBox="0 0 24 24" id="lucide-panel-left-open"><g fill="none" stroke="currentColor" stroke-linecap="round" stroke-linejoin="round" stroke-width="2"><rect width="18" height="18" x="3" y="3" rx="2"></rect><path d="M9 3v18m5-6l3-3l-3-3"></path></g></symbol>
  <symbol viewBox="0 0 24 24" id="lucide-panel-left-close"><g fill="none" stroke="currentColor" stroke-linecap="round" stroke-linejoin="round" stroke-width="2"><rect width="18" height="18" x="3" y="3" rx="2"></rect><path d="M9 3v18m-3-6l-3-3l3-3"></path></g></symbol>
  <symbol viewBox="0 0 24 24" id="lucide-home"><g fill="none" stroke="currentColor" stroke-linecap="round" stroke-linejoin="round" stroke-width="2"><path d="M15 21v-8a1 1 0 0 0-1-1h-4a1 1 0 0 0-1 1v8"></path><path d="M3 10a2 2 0 0 1 .709-1.528l7-5.999a2 2 0 0 1 2.582 0l7 5.999A2 2 0 0 1 21 10v9a2 2 0 0 1-2 2H5a2 2 0 0 1-2-2z"></path></g></symbol>
  <symbol viewBox="0 0 24 24" id="lucide-log-out"><path fill="none" stroke="currentColor" stroke-linecap="round" stroke-linejoin="round" stroke-width="2" d="M9 21H5a2 2 0 0 1-2-2V5a2 2 0 0 1 2-2h4m7 14l5-5l-5-5m5 5H9"></path></symbol>
  <symbol viewBox="0 0 24 24" id="lucide-message-square"><g fill="none" stroke="currentColor" stroke-linecap="round" stroke-linejoin="round" stroke-width="2"><path d="M21 15a2 2 0 0 1-2 2H7l-4 4V5a2 2 0 0 1 2-2h14a2 2 0 0 1 2 2z"></path></g></symbol>
  <symbol viewBox="0 0 24 24" id="lucide-calendar-check"><g fill="none" stroke="currentColor" stroke-linecap="round" stroke-linejoin="round" stroke-width="2"><path d="M8 2v4m8-4v4"></path><rect width="18" height="18" x="3" y="4" rx="2"></rect><path d="M3 10h18m-12 5l2 2l4-4"></path></g></symbol>
  <symbol viewBox="0 0 24 24" id="lucide-bar-chart-3"><g fill="none" stroke="currentColor" stroke-linecap="round" stroke-linejoin="round" stroke-width="2"><path d="M3 3v16a2 2 0 0 0 2 2h16"></path><path d="M7 16h.01M11 11h.01M15 16h.01M19 6h.01"></path><path d="M7 16v-1m4-4v-1m4 6v-1m4-9v-1"></path><path d="M7 16V9m4 2V5m4 11V9m4-3V3"></path></g></symbol>
  <symbol viewBox="0 0 24 24" id="lucide-file-text"><g fill="none" stroke="currentColor" stroke-linecap="round" stroke-linejoin="round" stroke-width="2"><path d="M15 2H6a2 2 0 0 0-2 2v16a2 2 0 0 0 2 2h12a2 2 0 0 0 2-2V7z"></path><path d="M14 2v4a2 2 0 0 0 2 2h4M10 9H8m8 4H8m8 4H8"></path></g></symbol>
  <symbol viewBox="0 0 24 24" id="lucide-eye"><g fill="none" stroke="currentColor" stroke-linecap="round" stroke-linejoin="round" stroke-width="2"><path d="M2.062 12.348a1 1 0 0 1 0-.696a10.75 10.75 0 0 1 19.876 0a1 1 0 0 1 0 .696a10.75 10.75 0 0 1-19.876 0"></path><circle cx="12" cy="12" r="3"></circle></g></symbol>
  <symbol viewBox="0 0 24 24" id="lucide-lock"><g fill="none" stroke="currentColor" stroke-linecap="round" stroke-linejoin="round" stroke-width="2"><rect width="18" height="11" x="3" y="11" rx="2" ry="2"></rect><path d="M7 11V7a5 5 0 0 1 10 0v4"></path></g></symbol>
  <symbol viewBox="0 0 24 24" id="lucide-book-open"><path fill="none" stroke="currentColor" stroke-linecap="round" stroke-linejoin="round" stroke-width="2" d="M12 7v14m-9-3a1 1 0 0 1-1-1V4a1 1 0 0 1 1-1h5a4 4 0 0 1 4 4a4 4 0 0 1 4-4h5a1 1 0 0 1 1 1v13a1 1 0 0 1-1 1h-6a3 3 0 0 0-3 3a3 3 0 0 0-3-3z"></path></symbol>
  <symbol viewBox="0 0 24 24" id="lucide-star"><path fill="none" stroke="currentColor" stroke-linecap="round" stroke-linejoin="round" stroke-width="2" d="M11.525 2.295a.53.53 0 0 1 .95 0l2.31 4.679a2.12 2.12 0 0 0 1.595 1.16l5.166.756a.53.53 0 0 1 .294.904l-3.736 3.638a2.12 2.12 0 0 0-.611 1.878l.882 5.14a.53.53 0 0 1-.771.56l-4.618-2.428a2.12 2.12 0 0 0-1.973 0L6.396 21.01a.53.53 0 0 1-.77-.56l.881-5.139a2.12 2.12 0 0 0-.611-1.879L2.16 9.795a.53.53 0 0 1 .294-.906l5.165-.755a2.12 2.12 0 0 0 1.597-1.16z"></path></symbol>
  <symbol viewBox="0 0 24 24" id="lucide-briefcase"><g fill="none" stroke="currentColor" stroke-linecap="round" stroke-linejoin="round" stroke-width="2"><path d="M16 20V4a2 2 0 0 0-2-2h-4a2 2 0 0 0-2 2v16"></path><rect width="20" height="14" x="2" y="6" rx="2"></rect></g></symbol>
  <symbol viewBox="0 0 24 24" id="lucide-search"><g fill="none" stroke="currentColor" stroke-linecap="round" stroke-linejoin="round" stroke-width="2"><path d="m21 21l-4.34-4.34"></path><circle cx="11" cy="11" r="8"></circle></g></symbol>
  <symbol viewBox="0 0 24 24" id="lucide-share-2"><g fill="none" stroke="currentColor" stroke-linecap="round" stroke-linejoin="round" stroke-width="2"><circle cx="18" cy="5" r="3"></circle><circle cx="6" cy="12" r="3"></circle><circle cx="18" cy="19" r="3"></circle><path d="m8.59 13.51l6.83 3.98m-.01-10.98l-6.82 3.98"></path></g></symbol>
  <symbol viewBox="0 0 24 24" id="lucide-cpu"><g fill="none" stroke="currentColor" stroke-linecap="round" stroke-linejoin="round" stroke-width="2"><path d="M12 20v2m0-20v2m5 16v2m0-20v2M2 12h2m-2 5h2M2 7h2m16 5h2m-2 5h2M20 7h2M7 20v2M7 2v2"></path><rect width="16" height="16" x="4" y="4" rx="2"></rect><rect width="8" height="8" x="8" y="8" rx="1"></rect></g></symbol>
  <symbol viewBox="0 0 24 24" id="lucide-globe"><g fill="none" stroke="currentColor" stroke-linecap="round" stroke-linejoin="round" stroke-width="2"><circle cx="12" cy="12" r="10"></circle><path d="M12 2a14.5 14.5 0 0 0 0 20a14.5 14.5 0 0 0 0-20"></path><path d="M2 12h20"></path></g></symbol>
  <symbol viewBox="0 0 24 24" id="lucide-smartphone"><g fill="none" stroke="currentColor" stroke-linecap="round" stroke-linejoin="round" stroke-width="2"><rect width="14" height="20" x="5" y="2" rx="2" ry="2"></rect><path d="M12 18h.01"></path></g></symbol>
  <symbol viewBox="0 0 24 24" id="lucide-server"><g fill="none" stroke="currentColor" stroke-linecap="round" stroke-linejoin="round" stroke-width="2"><rect width="20" height="8" x="2" y="2" rx="2" ry="2"></rect><rect width="20" height="8" x="2" y="14" rx="2" ry="2"></rect><path d="M6 6h.01"></path><path d="M6 18h.01"></path></g></symbol>
  <symbol viewBox="0 0 24 24" id="lucide-terminal"><g fill="none" stroke="currentColor" stroke-linecap="round" stroke-linejoin="round" stroke-width="2"><path d="M4 17l6-6l-6-6"></path><path d="M12 19h8"></path></g></symbol>
  <symbol viewBox="0 0 24 24" id="lucide-package"><g fill="none" stroke="currentColor" stroke-linecap="round" stroke-linejoin="round" stroke-width="2"><path d="M11 21.73a2 2 0 0 0 2 0l7-4A2 2 0 0 0 21 16V8a2 2 0 0 0-1-1.73l-7-4a2 2 0 0 0-2 0l-7 4A2 2 0 0 0 3 8v8a2 2 0 0 0 1 1.73z"></path><path d="M12 22V12"></path><path d="M3.29 7L12 12l8.71-5"></path><path d="M7.5 4.27l9 5.15"></path></g></symbol>
  <symbol viewBox="0 0 24 24" id="lucide-puzzle"><path fill="none" stroke="currentColor" stroke-linecap="round" stroke-linejoin="round" stroke-width="2" d="M15.39 4.39a1 1 0 0 0 1.68-.474a2.5 2.5 0 1 1 3.014 3.015a1 1 0 0 0-.474 1.68l1.683 1.682a2.414 2.414 0 0 1 0 3.414L19.61 15.39a1 1 0 0 1-1.68-.474a2.5 2.5 0 1 0-3.014 3.015a1 1 0 0 1 .474 1.68l-1.683 1.682a2.414 2.414 0 0 1-3.414 0L8.61 19.61a1 1 0 0 0-1.68.474a2.5 2.5 0 1 1-3.014-3.015a1 1 0 0 0 .474-1.68l-1.683-1.682a2.414 2.414 0 0 1 0-3.414L4.39 8.61a1 1 0 0 1 1.68.474a2.5 2.5 0 1 0 3.014-3.015a1 1 0 0 1-.474-1.68l1.683-1.682a2.414 2.414 0 0 1 3.414 0z"></path></symbol>
  <symbol viewBox="0 0 24 24" id="lucide-palette"><g fill="none" stroke="currentColor" stroke-linecap="round" stroke-linejoin="round" stroke-width="2"><path d="M12 22a1 1 0 0 1 0-20a10 9 0 0 1 10 9a5 5 0 0 1-5 5h-2.25a1.75 1.75 0 0 0-1.4 2.8l.3.4a1.75 1.75 0 0 1-1.4 2.8z"></path><circle cx="13.5" cy="6.5" r=".5" fill="currentColor"></circle><circle cx="17.5" cy="10.5" r=".5" fill="currentColor"></circle><circle cx="6.5" cy="12.5" r=".5" fill="currentColor"></circle><circle cx="8.5" cy="7.5" r=".5" fill="currentColor"></circle></g></symbol>
  <symbol viewBox="0 0 24 24" id="lucide-shield-user"><g fill="none" stroke="currentColor" stroke-linecap="round" stroke-linejoin="round" stroke-width="2"><path d="M20 13c0 5-3.5 7.5-7.66 8.95a1 1 0 0 1-.67-.01C7.5 20.5 4 18 4 13V6a1 1 0 0 1 1-1c2 0 4.5-1.2 6.24-2.72a1.17 1.17 0 0 1 1.52 0C14.51 3.81 17 5 19 5a1 1 0 0 1 1 1z"></path><path d="M6.376 18.91a6 6 0 0 1 11.249.003"></path><circle cx="12" cy="11" r="4"></circle></g></symbol>
  <symbol viewBox="0 0 512 512" id="game-icons-strong"><path fill="currentColor" d="M257.375 20.313c-13.418 0-26.07 7.685-35.938 21.75c-9.868 14.064-16.343 34.268-16.343 56.75c0 22.48 6.475 42.654 16.344 56.718c9.868 14.066 22.52 21.75 35.937 21.75c13.418 0 26.038-7.684 35.906-21.75c9.87-14.063 16.376-34.236 16.376-56.718c0-22.48-6.506-42.685-16.375-56.75c-9.867-14.064-22.487-21.75-35.905-21.75zm-150.25 43.062c-20.305.574-23.996 13.892-31.78 29.03c-23.298 45.304-55.564 164.75-55.564 164.75l160.47-5.436l29.125 137.593l-22.78 106.03h149.093l-22.282-106l24.25-137.5l157.53 5.313c.002 0-32.264-119.447-55.56-164.75c-7.787-15.14-11.477-28.457-31.782-29.03c-17.898 0-32.406 15.552-32.406 34.718s14.508 34.72 32.406 34.72c3.728 0 7.258-.884 10.594-2.126l7.937 74.406L309.437 165c-.285.42-.552.867-.843 1.28c-12.436 17.724-30.604 29.69-51.22 29.69c-20.614 0-38.782-11.966-51.218-29.69c-.277-.395-.54-.816-.812-1.218l-116.75 40.032l7.937-74.406c3.337 1.242 6.867 2.125 10.595 2.125c17.898 0 32.406-15.553 32.406-34.72c0-19.165-14.507-34.718-32.405-34.718z"></path></symbol>
  <symbol viewBox="0 0 24 24" id="material-symbols-heart-smile"><path fill="currentColor" d="M12 15.5q1.575 0 2.8-.975T16.375 12H14.3q-.3.675-.925 1.088T12 13.5t-1.375-.413T9.7 12H7.625q.35 1.55 1.575 2.525t2.8.975m-2.75-5q.525 0 .888-.363t.362-.887t-.363-.888T9.25 8t-.888.363T8 9.25t.363.888t.887.362m5.5 0q.525 0 .888-.363T16 9.25t-.363-.888T14.75 8t-.888.363t-.362.887t.363.888t.887.362M12 21l-1.45-1.25q-2.525-2.2-4.175-3.8T3.75 13.075t-1.362-2.35T2 8.5q0-2.35 1.575-3.925T7.5 3q1.3 0 2.475.55T12 5.1q.85-1 2.025-1.55T16.5 3q2.35 0 3.925 1.575T22 8.5q0 1.15-.387 2.225t-1.363 2.35t-2.625 2.875t-4.175 3.8z"></path></symbol>
</svg>
